# AST/ASF file generated using VICON BodyLanguage
# -----------------------------------------------
:version 1.10
:name VICON
:units
  mass 1.0
  length 0.45
  angle deg
:documentation
   .ast/.asf automatically generated from VICON data using
   VICON BodyBuilder and BodyLanguage model FoxedUp or BRILLIANT.MOD
:root
   order TX TY TZ RX RY RZ
   axis XYZ
   position 0 0 0  
   orientation 0 0 0 
:bonedata
  begin
     id 1 
     name lhipjoint
     direction 0.547975 -0.797114 0.253638 
     length 2.36201 
     axis 0 0 0  XYZ
  end
  begin
     id 2 
     name lfemur
     direction 0.34202 -0.939693 0  
     length 7.69075  
     axis 0 0 20  XYZ
    dof rx ry rz
    limits (-160.0 20.0)
           (-70.0 70.0)
           (-60.0 70.0)
  end
  begin
     id 3 
     name ltibia
     direction 0.34202 -0.939693 0   
     length 7.91399   
     axis 0 0 20   XYZ
    dof rx
    limits (-10.0 170.0)
  end
  begin
     id 4 
     name lfoot
     direction 0.0705293 -0.193778 0.978507   
     length 2.13618   
     axis -90 7.62852e-016 20   XYZ
    dof rx rz
    limits (-45.0 90.0)
           (-70.0 20.0)
  end
  begin
     id 5 
     name ltoes
     direction 1.53592e-011 -4.21925e-011 1   
     length 1.07518   
     axis -90 7.62852e-016 20   XYZ
    dof rx
    limits (-90.0 20.0)
  end
  begin
     id 6 
     name rhipjoint
     direction -0.57 -0.782963 0.249136   
     length 2.4047  
     axis 0 0 0  XYZ 
  end
  begin
     id 7 
     name rfemur
     direction -0.34202 -0.939693 0   
     length 7.51486   
     axis 0 0 -20   XYZ
    dof rx ry rz
    limits (-160.0 20.0)
           (-70.0 70.0)
           (-70.0 60.0)
  end
  begin
     id 8 
     name rtibia
     direction -0.34202 -0.939693 0   
     length 8.08317   
     axis 0 0 -20   XYZ
    dof rx
    limits (-10.0 170.0)
 end
 begin
     id 9 
     name rfoot
     direction -0.104954 -0.281256 0.953876   
     length 2.30343  
     axis -90 -7.62852e-016 -20   XYZ
    dof rx rz
    limits (-45.0 90.0)
           (-20.0 70.0)
  end
  begin
     id 10 
     name rtoes
     direction -1.53556e-011 -4.21922e-011 1   
     length 1.14803   
     axis -90 -7.62852e-016 -20   XYZ
    dof rx
    limits (-90.0 20.0)
  end
  begin
     id 11 
     name lowerback
     direction -0.0152855 0.99353 -0.11254   
     length 2.05311   
     axis 0 0 0   XYZ
    dof rx ry rz
    limits (-20.0 45.0)
           (-30.0 30.0)
           (-30.0 30.0)
  end
  begin
     id 12 
     name upperback
     direction -0.00157509 0.999443 -0.033332   
     length 2.06353   
     axis 0 0 0   XYZ
    dof rx ry rz
    limits (-20.0 45.0)
           (-30.0 30.0)
           (-30.0 30.0)
  end
  begin
     id 13 
     name thorax
     direction 0.00577788 0.999804 0.0189484   
     length 2.08472   
     axis 0 0 0   XYZ
    dof rx ry rz
    limits (-20.0 45.0)
           (-30.0 30.0)
           (-30.0 30.0)
  end
  begin
     id 14 
     name lowerneck
     direction -1.09301e-005 0.994719 0.10264   
     length 1.76249   
     axis 0 0 0   XYZ
    dof rx ry rz
    limits (-20.0 45.0)
           (-30.0 30.0)
           (-30.0 30.0)
  end
  begin
     id 15 
     name upperneck
     direction 0.0495018 0.988526 -0.142706   
     length 1.77897   
     axis 0 0 0   XYZ
    dof rx ry rz
    limits (-20.0 45.0)
           (-30.0 30.0)
           (-30.0 30.0)
  end
  begin
     id 16
     name head
     direction 0.0142736 0.998114 -0.0597101  
     length 1.78934  
     axis 0 0 0   XYZ
    dof rx ry rz
    limits (-20.0 45.0)
           (-30.0 30.0)
           (-30.0 30.0)
  end
  begin
     id 17 
     name lclavicle
     direction 0.918111 0.396107 -0.0130883  
     length 3.37276  
     axis 0 0 0   XYZ
    dof ry rz
    limits (-20.0 10.0)
           (0.0 20.0)
  end
  begin
     id 18 
     name lhumerus
     direction 1 -4.48975e-011 -3.26108e-027   
     length 5.34298   
     axis 180 -30 -90   XYZ
    dof rx ry rz
    limits (-60.0 90.0)
           (-90.0 90.0)
           (-90.0 90.0)
  end
  begin
     id 19
     name lradius
     direction 1 -4.48964e-011 -8.84413e-028   
     length 3.67262   
     axis 180 -30 -90   XYZ
    dof rx
    limits (-10.0 170.0)
  end
  begin
     id 20
     name lwrist
     direction 1 -4.48991e-011 -1.24264e-027   
     length 1.83631   
     axis -2.17013e-015 90 90   XYZ
    dof ry
    limits (-180.0 0.0)
 end
  begin
     id 21 
     name lhand
     direction 1 -4.48855e-011 -2.48528e-027   
     length 0.599298   
     axis 1.58582e-015 90 90   XYZ
    dof rx rz
    limits (-90.0 90.0)
           (-45.0 45.0)
  end
  begin
     id 22 
     name lfingers
     direction 1 -4.48811e-011 -4.97056e-027   
     length 0.48317   
     axis 3.17164e-015 90 90   XYZ
    dof rx
    limits (0.0 90.0)
  end
  begin
     id 23
     name lthumb
     direction 0.707107 -6.34882e-011 0.707107   
     length 0.693738   
     axis -90 45 2.85299e-015   XYZ
    dof rx rz
    limits (-45.0 45.0)
           (-45.0 45.0)
  end
  begin
     id 24 
     name rclavicle
     direction -0.920511 0.384752 -0.0680135   
     length 3.43787  
     axis 0 0 0   XYZ 
    dof ry rz
    limits (-10.0 20.0)
           (-20.0 0.0)
  end
  begin
     id 25 
     name rhumerus
     direction -0.999976 -0.00330524 0.00603274  
     length 5.5498   
     axis 180 30 90   XYZ
    dof rx ry rz
    limits (-90.0 60.0)
           (-90.0 90.0)
           (-90.0 90.0)
  end
  begin
     id 26 
     name rradius
     direction -1 -4.48967e-011 8.62438e-027   
     length 3.69401   
     axis 180 30 90   XYZ
    dof rx
    limits (-10.0 170.0)
  end
  begin
     id 27 
     name rwrist
     direction -1 -4.4897e-011 9.54866e-027   
     length 1.84701   
     axis -7.69462e-015 -90 -90   XYZ
    dof ry
    limits (-180.0 0.0)
  end
  begin
     id 28
     name rhand
     direction -1 -4.48982e-011 1.90973e-026   
     length 0.638113   
     axis -1.21857e-014 -90 -90   XYZ
    dof rx rz
    limits (-90.0 90.0)
           (-45.0 45.0)
  end
  begin
     id 29
     name rfingers
     direction -1 -4.48936e-011 3.81946e-026   
     length 0.514463   
     axis -2.43714e-014 -90 -90   XYZ
    dof rx
    limits (0.0 90.0)
  end
  begin
     id 30
     name rthumb
     direction -0.707107 -6.34942e-011 0.707107   
     length 0.738669   
     axis -90 -45 -2.85299e-015   XYZ
    dof rx rz
    limits (-45.0 45.0)
           (-45.0 45.0)
  end
:hierarchy
  begin
    root lhipjoint rhipjoint lowerback
    lhipjoint lfemur
    lfemur ltibia
    ltibia lfoot
    lfoot ltoes
    rhipjoint rfemur
    rfemur rtibia
    rtibia rfoot
    rfoot rtoes
    lowerback upperback
    upperback thorax
    thorax lowerneck lclavicle rclavicle
    lowerneck upperneck
    upperneck head
    lclavicle lhumerus
    lhumerus lradius
    lradius lwrist
    lwrist lhand lthumb
    lhand lfingers
    rclavicle rhumerus
    rhumerus rradius
    rradius rwrist
    rwrist rhand rthumb
    rhand rfingers
  end

#!OML:ASF F:\twosubjects\two\Thursday\Session 1\Rory.ASF
:FULLY-SPECIFIED
:DEGREES
26
root 13.9277 18.2863 19.2135 -171.532 -2.86445 -176.111
lowerback 15.733 2.05817 -5.34409
upperback 8.48462 0.397836 -3.43965
thorax 0.142167 -0.533766 -0.66316
lowerneck -1.51513 -6.99766 -9.85758
upperneck 16.4737 -10.9555 7.31167
head 6.1661 -5.71265 3.20539
rclavicle -2.22639e-014 -3.97569e-014
rhumerus 11.3368 -13.4992 -60.6397
rradius 55.9588
rwrist 0.597387
rhand -32.4385 32.6558
rfingers 7.12502
rthumb -5.67209 2.75173
lclavicle -2.22639e-014 -3.97569e-014
lhumerus -25.8916 -6.20835 78.3231
lradius 61.9233
lwrist -6.4647
lhand -12.8338 32.5568
lfingers 7.12502
lthumb 13.2534 62.1154
rfemur -19.8307 12.0834 20.8295
rtibia 40.3306
rfoot -22.4331 -7.14701
rtoes -0.186399
lfemur -35.0331 -3.61302 -6.995
ltibia 18.2286
lfoot -2.16166 18.3931
ltoes 6.12871
27
root 13.8761 18.267 19.1496 -171.25 -2.80035 -176.059
lowerback 15.9311 1.95398 -5.70787
upperback 8.49455 0.174016 -3.44096
thorax 0.0535413 -0.663051 -0.427249
lowerneck -1.3695 -6.92329 -9.91045
upperneck 16.0934 -10.7969 7.29201
head 6.00903 -5.63457 3.23124
rclavicle 3.57812e-014 6.04305e-014
rhumerus 11.729 -12.9718 -60.653
rradius 56.5531
rwrist 1.11067
rhand -32.3115 32.9748
rfingers 7.12502
rthumb -5.54947 3.06751
lclavicle 3.57812e-014 6.04305e-014
lhumerus -25.6943 -6.43824 78.3338
lradius 62.1414
lwrist -6.10098
lhand -12.9873 31.0713
lfingers 7.12502
lthumb 13.1054 60.6396
rfemur -20.2659 12.0949 20.7408
rtibia 40.9719
rfoot -22.6788 -7.49371
rtoes -1.57883
lfemur -35.7126 -2.88679 -7.37117
ltibia 19.1795
lfoot -0.581442 18.5105
ltoes 7.22068
28
root 13.8225 18.2398 19.0873 -170.983 -2.63766 -176.131
lowerback 16.1092 2.03406 -6.23976
upperback 8.56538 0.156182 -3.42787
thorax 0.0354276 -0.70468 -0.11532
lowerneck -1.24815 -7.01937 -9.93252
upperneck 15.7404 -10.8836 7.32494
head 5.88904 -5.66646 3.24737
rclavicle -6.36111e-015 1.11319e-014
rhumerus 11.9972 -12.8487 -60.5828
rradius 57.1102
rwrist 1.54253
rhand -31.2618 33.0135
rfingers 7.12502
rthumb -4.53595 3.08211
lclavicle -6.36111e-015 1.11319e-014
lhumerus -25.1778 -6.74887 78.4133
lradius 62.2073
lwrist -6.23365
lhand -13.2863 30.103
lfingers 7.12502
lthumb 12.8172 59.6895
rfemur -20.67 12.2286 20.4635
rtibia 41.6829
rfoot -22.9031 -7.47582
rtoes -1.45779
lfemur -36.4046 -2.04462 -7.92977
ltibia 20.21
lfoot 0.84972 18.4652
ltoes 6.06614
29
root 13.7699 18.2048 19.0235 -170.762 -2.61014 -175.874
lowerback 16.4551 2.02332 -6.34433
upperback 8.62119 0.0705854 -3.37315
thorax -0.0828379 -0.760888 0.0134031
lowerneck -1.32425 -7.12001 -10.2192
upperneck 15.6672 -11.031 7.66861
head 5.92731 -5.72419 3.38661
rclavicle 3.97569e-014 1.00187e-013
rhumerus 12.0208 -12.4486 -60.446
rradius 57.9403
rwrist 1.31241
rhand -30.8174 34.0296
rfingers 7.12502
rthumb -4.1068 4.08941
lclavicle 3.97569e-014 1.00187e-013
lhumerus -24.6276 -6.97333 78.3634
lradius 62.3401
lwrist -6.77662
lhand -12.792 30.2908
lfingers 7.12502
lthumb 13.2937 59.8468
rfemur -21.0517 12.3031 20.5942
rtibia 42.481
rfoot -23.1021 -7.56364
rtoes -1.57778
lfemur -37.1076 -1.21058 -8.11929
ltibia 21.1535
lfoot 2.09868 17.7862
ltoes 3.86347
30
root 13.7207 18.1887 18.9576 -170.486 -2.36592 -175.75
lowerback 16.6711 2.07604 -6.57256
upperback 8.73609 0.0342034 -3.48326
thorax -0.0717245 -0.807955 0.0285428
lowerneck -1.52574 -7.21854 -10.3079
upperneck 15.5208 -11.1622 8.07561
head 5.95542 -5.75169 3.51182
rclavicle 4.77083e-015 1.90833e-014
rhumerus 12.0444 -11.9546 -60.4679
rradius 58.8882
rwrist 0.892148
rhand -32.5125 34.6889
rfingers 7.12502
rthumb -5.74354 4.7867
lclavicle 4.77083e-015 1.90833e-014
lhumerus -23.8826 -7.39442 78.0537
lradius 62.4627
lwrist -7.27593
lhand -12.5135 29.9705
lfingers 7.12502
lthumb 13.5622 59.5088
rfemur -21.5912 12.4629 20.5642
rtibia 43.3718
rfoot -23.2154 -7.82511
rtoes -2.35052
lfemur -37.7729 -0.266987 -8.43056
ltibia 21.9583
lfoot 3.02636 16.9035
ltoes 4.17672
31
root 13.6554 18.1793 18.8943 -170.138 -2.92112 -176.123
lowerback 16.9235 1.89412 -6.72118
upperback 8.92314 -0.321087 -3.77645
thorax 0.0115115 -1.01635 -0.142235
lowerneck -1.8007 -7.41278 -10.0312
upperneck 15.3809 -11.4361 8.4647
head 5.99086 -5.82556 3.5584
rclavicle 0 1.11319e-014
rhumerus 11.9769 -11.7631 -60.5517
rradius 59.619
rwrist 0.935169
rhand -33.5796 32.6307
rfingers 7.12502
rthumb -6.77374 2.75905
lclavicle 0 1.11319e-014
lhumerus -23.0545 -8.1277 77.6071
lradius 62.5768
lwrist -7.98588
lhand -12.3042 30.0458
lfingers 7.12502
lthumb 13.7639 59.5706
rfemur -22.1778 11.7521 20.0739
rtibia 44.3546
rfoot -23.3708 -7.97944
rtoes -2.35006
lfemur -38.6474 -0.0409542 -9.2885
ltibia 22.6918
lfoot 3.85398 16.0256
ltoes 4.58895
32
root 13.5977 18.1451 18.8323 -169.902 -3.31562 -176.196
lowerback 17.3145 1.84043 -6.87226
upperback 9.06669 -0.503115 -3.84937
thorax -0.0296326 -1.13308 -0.105328
lowerneck -2.05993 -7.56888 -9.99489
upperneck 15.4551 -11.6793 8.79405
head 6.09934 -5.90757 3.62403
rclavicle -3.33958e-014 -1.00187e-013
rhumerus 11.7813 -11.5747 -60.4656
rradius 60.3026
rwrist 1.0563
rhand -32.4298 30.7397
rfingers 7.12502
rthumb -5.6637 0.835349
lclavicle -3.33958e-014 -1.00187e-013
lhumerus -22.4543 -8.92307 77.3251
lradius 62.802
lwrist -8.62988
lhand -10.0339 32.0658
lfingers 7.12502
lthumb 15.951 61.429
rfemur -22.696 11.3251 19.9194
rtibia 45.3693
rfoot -23.3647 -8.13712
rtoes -2.82637
lfemur -39.3403 0.496791 -9.89887
ltibia 23.4774
lfoot 4.55902 15.1036
ltoes 4.40871
33
root 13.5426 18.0918 18.7633 -169.677 -3.37664 -176.139
lowerback 17.4908 1.84903 -7.12255
upperback 9.26878 -0.595683 -3.82981
thorax 0.102895 -1.21847 0.0668121
lowerneck -2.30774 -7.63298 -10.201
upperneck 15.462 -11.7471 9.00611
head 6.17608 -5.92357 3.70699
rclavicle 3.49861e-014 8.90555e-014
rhumerus 11.7206 -11.0915 -60.3208
rradius 61.1522
rwrist 0.734782
rhand -31.7274 30.5108
rfingers 7.12502
rthumb -4.98549 0.589418
lclavicle 3.49861e-014 8.90555e-014
lhumerus -21.7099 -9.70491 77.0753
lradius 63.0211
lwrist -8.51002
lhand -8.55771 33.3018
lfingers 7.12502
lthumb 17.3721 62.5454
rfemur -23.2295 11.2552 19.8155
rtibia 46.3946
rfoot -23.5493 -8.10852
rtoes -2.47137
lfemur -39.9663 1.3918 -10.4474
ltibia 24.3769
lfoot 5.17343 14.0403
ltoes 7.73579
34
root 13.4974 18.0597 18.6948 -169.409 -2.9168 -176.034
lowerback 17.6558 2.03142 -7.51975
upperback 9.3853 -0.495495 -3.92534
thorax 0.14056 -1.2091 0.167422
lowerneck -2.34989 -7.69932 -10.1666
upperneck 15.2083 -11.8025 9.14409
head 6.11566 -5.92923 3.74129
rclavicle -3.18055e-015 -4.77083e-015
rhumerus 11.4538 -10.4409 -60.1367
rradius 62.1607
rwrist 0.00892849
rhand -32.362 30.3453
rfingers 7.12502
rthumb -5.59823 0.439233
lclavicle -3.18055e-015 -4.77083e-015
lhumerus -20.7576 -10.5022 76.7494
lradius 63.0433
lwrist -8.22652
lhand -10.4975 32.157
lfingers 7.12502
lthumb 15.5046 61.5553
rfemur -23.8551 11.522 19.6653
rtibia 47.3719
rfoot -23.6843 -7.93428
rtoes -2.27397
lfemur -40.5453 2.67763 -10.961
ltibia 25.377
lfoot 5.76293 13.1717
ltoes 11.404
35
root 13.4534 18.0413 18.632 -169.123 -2.49578 -175.721
lowerback 17.985 2.25255 -7.69972
upperback 9.33509 -0.300358 -3.98353
thorax -0.0934436 -1.11887 0.174795
lowerneck -2.12504 -7.7619 -10.09
upperneck 14.9705 -11.9218 9.40635
head 6.02517 -5.97123 3.81408
rclavicle -5.08889e-014 -1.33583e-013
rhumerus 10.8015 -9.90304 -59.8485
rradius 63.1032
rwrist -0.616684
rhand -32.956 29.9461
rfingers 7.12502
rthumb -6.17172 0.0559815
lclavicle -5.08889e-014 -1.33583e-013
lhumerus -20.0648 -11.4643 76.5323
lradius 63.0593
lwrist -8.20476
lhand -10.3236 32.5992
lfingers 7.12502
lthumb 15.672 61.9845
rfemur -24.4963 11.8548 19.752
rtibia 48.2983
rfoot -23.3851 -8.03264
rtoes -4.06307
lfemur -41.2618 3.78706 -11.1648
ltibia 26.5638
lfoot 6.00202 12.6257
ltoes 11.0058
36
root 13.3779 18.0246 18.5775 -168.674 -3.09716 -175.681
lowerback 18.2791 1.97078 -7.35333
upperback 9.26611 -0.635528 -4.05258
thorax -0.306228 -1.25608 -0.026662
lowerneck -1.78839 -7.74504 -10.3864
upperneck 14.8996 -11.9959 9.898
head 5.99901 -6.00909 4.02578
rclavicle -1.11319e-014 2.54444e-014
rhumerus 10.316 -9.25483 -59.643
rradius 63.7686
rwrist -0.924477
rhand -33.2656 29.6459
rfingers 7.12502
rthumb -6.47065 -0.235265
lclavicle -1.11319e-014 2.54444e-014
lhumerus -19.6026 -12.4184 76.4269
lradius 63.168
lwrist -8.26263
lhand -4.96378 37.1131
lfingers 7.12502
lthumb 20.8282 66.0152
rfemur -25.2924 11.1331 19.581
rtibia 49.3356
rfoot -23.1549 -7.79179
rtoes -4.2848
lfemur -42.4787 3.79199 -11.5894
ltibia 27.9262
lfoot 5.74751 11.8935
ltoes 8.08799
37
root 13.3192 18.0096 18.533 -168.184 -2.2891 -175.394
lowerback 18.3859 2.18882 -7.57876
upperback 9.14589 -0.410939 -4.09893
thorax -0.500076 -1.14414 0.0117534
lowerneck -1.6058 -7.63318 -10.7467
upperneck 14.9506 -11.9123 10.2354
head 6.0152 -5.97923 4.20552
rclavicle -1.43125e-014 9.54166e-015
rhumerus 10.1967 -8.3482 -59.538
rradius 64.3017
rwrist -1.1351
rhand -33.7818 29.5999
rfingers 7.12502
rthumb -6.9689 -0.265422
lclavicle -1.43125e-014 9.54166e-015
lhumerus -18.944 -12.9766 76.2807
lradius 63.0864
lwrist -8.85032
lhand -9.05292 31.994
lfingers 7.12502
lthumb 16.8955 61.2791
rfemur -26.36 11.5556 19.3467
rtibia 50.2981
rfoot -22.7198 -7.07741
rtoes -3.65182
lfemur -43.3566 5.05985 -11.9036
ltibia 29.1068
lfoot 5.24335 11.0978
ltoes 5.44807
38
root 13.247 17.9629 18.5037 -167.003 -1.03175 -175.039
lowerback 17.7054 2.4411 -7.64583
upperback 8.96301 0.00527288 -4.29411
thorax -0.36643 -0.920576 -0.232258
lowerneck -1.88326 -7.58814 -10.7051
upperneck 15.2177 -11.8673 10.2631
head 6.14052 -5.94431 4.19824
rclavicle -7.95139e-015 -5.24792e-014
rhumerus 10.0857 -7.69929 -59.475
rradius 64.9705
rwrist -1.22236
rhand -34.2678 29.5961
rfingers 7.12502
rthumb -7.43803 -0.25312
lclavicle -7.95139e-015 -5.24792e-014
lhumerus -17.9887 -13.5978 75.893
lradius 63.093
lwrist -9.93839
lhand -11.5395 29.2477
lfingers 7.12502
lthumb 14.5007 58.7209
rfemur -28.5237 12.304 18.7771
rtibia 51.3741
rfoot -22.0211 -6.30314
rtoes -4.41174
lfemur -45.0592 6.56842 -12.2542
ltibia 30.3431
lfoot 4.73761 10.7606
ltoes 5.16418
39
root 13.1979 17.9626 18.4248 -167.879 -3.0683 -175.624
lowerback 19.2814 1.98175 -7.54701
upperback 9.56787 -0.912329 -4.30892
thorax -0.485 -1.45424 -0.137286
lowerneck -2.21315 -7.63902 -10.4335
upperneck 15.5348 -11.9655 10.2416
head 6.29031 -5.96532 4.1231
rclavicle -5.24792e-014 -9.06458e-014
rhumerus 9.81706 -7.42407 -59.5525
rradius 65.8187
rwrist -1.05977
rhand -34.4775 29.2746
rfingers 7.12502
rthumb -7.64047 -0.567372
lclavicle -5.24792e-014 -9.06458e-014
lhumerus -16.9823 -14.6519 75.3557
lradius 63.3438
lwrist -10.2153
lhand -13.21 28.7881
lfingers 7.12502
lthumb 12.8907 58.37
rfemur -27.3103 10.9686 18.6866
rtibia 52.1864
rfoot -22.2675 -6.50811
rtoes -3.50723
lfemur -44.8586 5.79222 -13.3054
ltibia 31.459
lfoot 4.26537 9.01076
ltoes 4.43161
